<?xml version="1.0" encoding="UTF-8" standalone="no"?>
<svg xmlns:rdf="http://www.w3.org/1999/02/22-rdf-syntax-ns#" xmlns="http://www.w3.org/2000/svg" height="48" width="48" version="1.1" xmlns:cc="http://creativecommons.org/ns#" xmlns:dc="http://purl.org/dc/elements/1.1/" viewBox="0 0 48 48">
<g transform="translate(0 -1004.4)">
<path style="color-rendering:auto;text-decoration-color:#000000;color:#000000;shape-rendering:auto;solid-color:#000000;text-decoration-line:none;fill:#000000;mix-blend-mode:normal;block-progression:tb;text-indent:0;image-rendering:auto;white-space:normal;text-decoration-style:solid;isolation:auto;text-transform:none" d="m13.996 1016.3c-1.5681-0.078-2.6 1.9502-1.6142 3.1721 2.6172 2.696 5.3107 5.3226 7.9575 7.9916 0.2264 0.2948 0.72378 0.5895 0.78829 0.8843-2.8852 2.891-5.7807 5.772-8.6595 8.6692-1.0792 1.1403-0.21049 3.2434 1.3589 3.2896 1.2968 0.1183 1.9996-1.1123 2.8516-1.8613l7.3213-7.3213c2.9063 2.9013 5.8027 5.8127 8.7151 8.7077 1.1395 1.08 3.2432 0.2128 3.2906-1.3565 0.11938-1.2969-1.111-2.0003-1.86-2.8522-2.4405-2.4411-4.881-4.8821-7.3215-7.3232 2.899-2.9084 5.8173-5.7985 8.7042-8.7183 1.0528-1.165 0.1359-3.2476-1.4342-3.2578-1.2844-0.082-1.9711 1.1358-2.8209 1.8786l-7.2733 7.2733c-2.9071-2.9004-5.8011-5.8144-8.7164-8.7063-0.3562-0.3018-0.82073-0.4711-1.2875-0.4695z"/>
</g>
</svg>
