<?xml version="1.0" encoding="UTF-8" standalone="no"?>
<svg xmlns:rdf="http://www.w3.org/1999/02/22-rdf-syntax-ns#" xmlns="http://www.w3.org/2000/svg" height="48" width="48" version="1.1" xmlns:cc="http://creativecommons.org/ns#" xmlns:dc="http://purl.org/dc/elements/1.1/" viewBox="0 0 48.000001 48.000001">
<path opacity="0.967" style="color-rendering:auto;text-decoration-color:#000000;color:#000000;isolation:auto;mix-blend-mode:normal;shape-rendering:auto;solid-color:#000000;block-progression:tb;text-decoration-line:none;image-rendering:auto;white-space:normal;text-indent:0;text-transform:none;text-decoration-style:solid" d="m24 10c-7.7193 0-14 6.2807-14 14s6.2807 14 14 14 14-6.2807 14-14-6.2807-14-14-14zm0 2.1064c6.581 0 11.894 5.3127 11.894 11.894 0 6.581-5.3127 11.894-11.894 11.894-6.581 0-11.894-5.3127-11.894-11.894 0-6.581 5.3127-11.894 11.894-11.894zm6.1304 6.2081a1.0533 1.0533 0 0 0 -0.72409 0.31882l-8.2325 8.2325-2.5383-2.8563a1.0533 1.0533 0 0 0 -1.5747 1.3993l3.2808 3.6909a1.0533 1.0533 0 0 0 1.5323 0.04565l9.0223-9.0223a1.0533 1.0533 0 0 0 -0.76574 -1.8086z" fill="#000000"/>
</svg>
