<?xml version="1.0" encoding="UTF-8" standalone="no"?>
<svg xmlns:rdf="http://www.w3.org/1999/02/22-rdf-syntax-ns#" xmlns="http://www.w3.org/2000/svg" height="48" width="48" version="1.1" xmlns:cc="http://creativecommons.org/ns#" xmlns:dc="http://purl.org/dc/elements/1.1/" viewBox="0 0 48.000001 48.000001">
 <path opacity="0.967" style="color-rendering:auto;text-decoration-color:#000000;color:#000000;isolation:auto;mix-blend-mode:normal;shape-rendering:auto;solid-color:#000000;block-progression:tb;text-decoration-line:none;text-decoration-style:solid;image-rendering:auto;white-space:normal;text-indent:0;text-transform:none" d="m24 4.0605c-7.925-0.1088-15.548 5.054-18.463 12.41-2.987 7.078-1.3377 15.789 4.036 21.28 5.225 5.625 13.835 7.695 21.046 5.06 7.557-2.573 13.107-10.048 13.306-18.04 0.403-7.765-4.261-15.444-11.288-18.74-2.682-1.2981-5.658-1.9734-8.637-1.9695zm8.7305 11.848c1.4379-0.11632 2.1059 1.9366 0.93228 2.7357-4.3139 4.2858-8.5751 8.6313-12.922 12.88-0.96477 0.68362-2.0038-0.12183-2.5513-0.92863-1.4217-1.6649-2.9855-3.2266-4.317-4.9573-0.68345-1.298 1.0568-2.757 2.2157-1.8576 1.3558 1.3732 2.5811 2.8819 3.8863 4.3076 3.9902-3.9662 7.9352-7.9831 11.954-11.918 0.2351-0.16166 0.51714-0.25371 0.8023-0.26195z" fill-rule="evenodd" fill="#000000"/>
</svg>
