<?xml version="1.0" encoding="UTF-8" standalone="no"?>
<svg xmlns:rdf="http://www.w3.org/1999/02/22-rdf-syntax-ns#" xmlns="http://www.w3.org/2000/svg" height="48" width="48" version="1.1" xmlns:cc="http://creativecommons.org/ns#" xmlns:dc="http://purl.org/dc/elements/1.1/" viewBox="0 0 48 48">
<path style="opacity:0.967;color-rendering:auto;text-decoration-color:#000000;color:#000000;isolation:auto;mix-blend-mode:normal;shape-rendering:auto;solid-color:#000000;block-progression:tb;text-decoration-line:none;image-rendering:auto;white-space:normal;text-indent:0;text-transform:none;text-decoration-style:solid;fill:#000000" d="m24 10c-5.5643-0.0764-10.916 3.5485-12.964 8.7134-2.097 4.9691-0.93897 11.085 2.834 14.941 3.6688 3.9495 9.7138 5.4026 14.777 3.5528 5.306-1.8064 9.2026-7.0554 9.3423-12.667 0.284-5.451-2.991-10.843-7.925-13.157-1.883-0.912-3.973-1.3858-6.064-1.383zm0 2.1064c5.181-0.09307 10.107 3.6296 11.444 8.6335 1.4704 4.9045-0.66737 10.59-5.0274 13.284-4.446 2.945-10.83 2.338-14.628-1.409-3.926-3.614-4.835-9.958-2.11-14.54 2.061-3.652 6.125-6.01 10.321-5.969zm6.1304 6.2081c-0.82735 0.09826-1.2389 0.95778-1.8441 1.4388l-7.1125 7.1125c-0.93724-1.0078-1.7892-2.108-2.7809-3.057-0.85061-0.5806-2.0075 0.51636-1.473 1.3966 1.1495 1.3768 2.3625 2.7149 3.5762 4.0368 0.6475 0.5185 1.409-0.0021 1.8257-0.5449 2.8988-2.9157 5.8333-5.7995 8.7098-8.7351 0.49232-0.68616-0.05618-1.6919-0.90134-1.6478z"/>
</svg>
