<?xml version="1.0" encoding="UTF-8" standalone="no"?>
<svg xmlns:rdf="http://www.w3.org/1999/02/22-rdf-syntax-ns#" xmlns="http://www.w3.org/2000/svg" height="48" width="48" version="1.1" xmlns:cc="http://creativecommons.org/ns#" xmlns:dc="http://purl.org/dc/elements/1.1/" viewBox="0 0 48 48">
<g transform="matrix(.81773 0 0 .84237 3.5562 -843.17)">
<path style="color-rendering:auto;text-decoration-color:#000000;color:#000000;shape-rendering:auto;solid-color:#000000;text-decoration-line:none;fill:#000000;mix-blend-mode:normal;block-progression:tb;text-indent:0;image-rendering:auto;white-space:normal;text-decoration-style:solid;isolation:auto;text-transform:none" d="m39.959 1016.3c-1.3395 0.07-2.0333 1.3691-2.962 2.1554l-18.905 18.905c-2.2254-2.4928-4.4304-5.0048-6.6687-7.4857-1.2211-1.2486-3.5891-0.2309-3.5234 1.5144 0.019199 1.345 1.2789 2.1131 2.0139 3.0959 2.2236 2.491 4.4268 5.0011 6.6632 7.4802 0.95347 0.9382 2.5273 0.5885 3.272-0.4242 7.2577-7.2648 14.53-14.516 21.779-21.789 1.1759-1.3341 0.11191-3.5434-1.6684-3.452z"/>
</g>
</svg>
