<?xml version="1.0" encoding="UTF-8" standalone="no"?>
<svg xmlns:rdf="http://www.w3.org/1999/02/22-rdf-syntax-ns#" xmlns="http://www.w3.org/2000/svg" height="48" width="48" version="1.1" xmlns:cc="http://creativecommons.org/ns#" xmlns:dc="http://purl.org/dc/elements/1.1/" viewBox="0 0 48 48.000001">
 <path opacity="0.967" d="m24 4c-12.97-0.4925-23.394 13.677-19.107 25.91 3.3651 12.528 19.976 18.322 30.4 10.597 10.978-6.917 11.601-24.497 1.139-32.174-3.499-2.791-7.956-4.3441-12.432-4.333zm-8.3359 10c1.2981 0.09625 1.941 1.4398 2.8734 2.1839l5.4626 5.4626c2.4746-2.4418 4.8879-4.9535 7.4008-7.3517 1.3069-0.96948 3.2015 0.69051 2.4122 2.1135-1.1637 1.4632-2.6322 2.6828-3.917 4.0491l-3.5426 3.5426c2.447 2.4703 4.9431 4.8965 7.3594 7.3943 1.009 1.2764-0.59207 3.2209-2.0384 2.4756-1.3715-1.0288-2.4724-2.4041-3.7324-3.5754-1.314-1.314-2.628-2.628-3.942-3.941-2.4701 2.4465-4.8968 4.9414-7.3941 7.3577-1.2756 1.01-3.2214-0.5894-2.4773-2.0364 1.0278-1.3721 2.4042-2.4723 3.5754-3.7323 1.314-1.315 2.628-2.629 3.942-3.943-2.445-2.472-4.946-4.893-7.356-7.397-0.767-1.055 0.068-2.64 1.374-2.603z" fill-rule="evenodd" fill="#000000"/>
</svg>
