<?xml version="1.0" encoding="UTF-8" standalone="no"?>
<svg xmlns:rdf="http://www.w3.org/1999/02/22-rdf-syntax-ns#" xmlns="http://www.w3.org/2000/svg" height="48" width="48" version="1.1" xmlns:cc="http://creativecommons.org/ns#" xmlns:dc="http://purl.org/dc/elements/1.1/" viewBox="0 0 48 48.000001">
<path opacity="0.967" d="m24.059 10.009c-9.078-0.3449-16.375 9.572-13.374 18.133 2.355 8.768 13.983 12.823 21.279 7.416 7.684-4.841 8.12-17.144 0.797-22.517-2.449-1.953-5.569-3.04-8.702-3.032zm-5.8349 6.9985c0.90864 0.06736 1.3586 1.0076 2.0113 1.5284l3.8237 3.823c1.7322-1.7089 3.4214-3.4667 5.1804-5.1451 0.91479-0.67849 2.241 0.48326 1.6885 1.4791-0.81456 1.024-1.8425 1.8776-2.7418 2.8338l-2.4797 2.4793c1.7128 1.7288 3.46 3.4268 5.1514 5.1749 0.70627 0.89329-0.41443 2.2542-1.4268 1.7326-0.96001-0.72001-1.7306-1.6825-2.6126-2.5023-0.91976-0.91961-1.8395-1.8392-2.7593-2.7581-1.729 1.7122-3.4276 3.4583-5.1757 5.1493-0.89288 0.70685-2.2549-0.41249-1.734-1.4252 0.71943-0.96027 1.6829-1.7302 2.5027-2.6121 0.91976-0.92031 1.8395-1.8399 2.7593-2.7595-1.7114-1.73-3.4621-3.4244-5.149-5.1768-0.53688-0.73835 0.0476-1.8476 0.96176-1.8217z" fill-rule="evenodd" fill="#000000"/>
</svg>
