<?xml version="1.0" encoding="UTF-8" standalone="no"?>
<svg xmlns:rdf="http://www.w3.org/1999/02/22-rdf-syntax-ns#" xmlns="http://www.w3.org/2000/svg" fill="#000000" height="48" width="48" version="1.1" xmlns:cc="http://creativecommons.org/ns#" xmlns:dc="http://purl.org/dc/elements/1.1/" viewBox="0 0 24 24">
 <path d="m0 0h24v24h-24z" fill="none"/>
 <path d="m11 17c0.28236 0.60392 1.7529 0.61916 2 0 0.56449-1.4142 0.4439-4.5858 0-6-0.19965-0.63607-1.8179-0.64131-2 0-0.40158 1.4142-0.66123 4.5858 0 6zm1-15c-5.52 0-10 4.48-10 10s4.48 10 10 10 10-4.48 10-10-4.48-10-10-10zm0 18c-4.41 0-8-3.59-8-8s3.59-8 8-8 8 3.59 8 8-3.59 8-8 8zm-1-11c0.4714 0.4714 1.5286 0.4714 2 0s0.4714-1.5286 0-2-1.5286-0.4714-2 0-0.4714 1.5286 0 2z"/>
</svg>
