<?xml version="1.0" encoding="UTF-8" standalone="no"?>
<svg xmlns:rdf="http://www.w3.org/1999/02/22-rdf-syntax-ns#" xmlns="http://www.w3.org/2000/svg" fill="#000000" height="48" width="48" version="1.1" xmlns:cc="http://creativecommons.org/ns#" xmlns:dc="http://purl.org/dc/elements/1.1/" viewBox="0 0 24 24">
 <path d="m0 0h24v24h-24z" fill="none"/>
 <path d="m12 2c-5.52 0-10 4.48-10 10s4.48 10 10 10 10-4.48 10-10-4.48-10-10-10zm1 15c-0.20409 0.63466-1.8052 0.63756-2 0-0.44693-1.4626-0.48525-4.6322 0-6 0.2229-0.6283 1.826-0.64355 2 0 0.369 1.3644 0.46924 4.5408 0 6zm0-8c-0.4714 0.4714-1.5286 0.4714-2 0s-0.4714-1.5286 0-2 1.5286-0.4714 2 0 0.4714 1.5286 0 2z"/>
</svg>
