<?xml version="1.0" encoding="UTF-8" standalone="no"?>
<svg xmlns:rdf="http://www.w3.org/1999/02/22-rdf-syntax-ns#" xmlns="http://www.w3.org/2000/svg" fill="#000000" height="48" width="48" version="1.1" xmlns:cc="http://creativecommons.org/ns#" xmlns:dc="http://purl.org/dc/elements/1.1/" viewBox="0 0 24 24">
<path d="m0 0h24v24h-24z" fill="none"/>
<path d="m11.3 15.5c0.19765 0.42274 1.227 0.43341 1.4 0 0.39514-0.98994 0.31073-3.2101 0-4.2-0.13976-0.44525-1.2725-0.44892-1.4 0-0.28111 0.98994-0.46286 3.2101 0 4.2zm0.7-10.5c-3.864 0-7 3.136-7 7s3.136 7 7 7 7-3.136 7-7-3.136-7-7-7zm0 12.6c-3.087 0-5.6-2.513-5.6-5.6s2.513-5.6 5.6-5.6 5.6 2.513 5.6 5.6-2.513 5.6-5.6 5.6zm-0.7-7.7c0.32998 0.32998 1.07 0.32998 1.4 0 0.32998-0.32998 0.32998-1.07 0-1.4-0.32998-0.32998-1.07-0.32998-1.4 0-0.32998 0.32998-0.32998 1.07 0 1.4z"/>
</svg>
