<?xml version="1.0" encoding="UTF-8" standalone="no"?>
<svg xmlns:rdf="http://www.w3.org/1999/02/22-rdf-syntax-ns#" xmlns="http://www.w3.org/2000/svg" height="48" width="48" version="1.1" xmlns:cc="http://creativecommons.org/ns#" xmlns:dc="http://purl.org/dc/elements/1.1/">
<g transform="matrix(1.0363 0 0 1.0363 -1.3989 -1.3989)" stroke="#000" stroke-linecap="round" stroke-width="4px" fill="none">
<path style="color-rendering:auto;text-decoration-color:#000000;color:#000000;shape-rendering:auto;solid-color:#000000;text-decoration-line:none;fill:#000000;mix-blend-mode:normal;block-progression:tb;text-indent:0;image-rendering:auto;white-space:normal;text-decoration-style:solid;isolation:auto;text-transform:none" d="m21.611 11.045c-3.5455 0.08979-7.041 1.957-8.88 5.0268-2.8865 4.1489-2.0752 10.188 1.4401 13.712 2.2138 2.2651 5.4827 3.4288 8.6275 3.224 1.9401-0.15263 3.8216-0.85983 5.4202-1.9625l6.3684 6.3684 2.8271-2.8271-6.3779-6.3779c2.8227-3.7846 2.5312-9.384-0.40521-13.018-2.0477-2.8112-5.5884-4.2879-9.0202-4.1464zm0.14324 3.9994c2.4879-0.14187 5.0076 1.1307 6.2303 3.3281 1.5312 2.4729 1.3775 5.9509-0.67744 8.09-1.8413 2.1015-4.9675 3.2123-7.6438 2.1483-4.2271-1.3592-6.0851-7.3105-3.2878-10.796 1.185-1.7558 3.2991-2.7065 5.3788-2.7702z"/>
</g>
</svg>
