<?xml version="1.0" encoding="UTF-8" standalone="no"?>
<svg
   xmlns:dc="http://purl.org/dc/elements/1.1/"
   xmlns:cc="http://creativecommons.org/ns#"
   xmlns:rdf="http://www.w3.org/1999/02/22-rdf-syntax-ns#"
   xmlns:svg="http://www.w3.org/2000/svg"
   xmlns="http://www.w3.org/2000/svg"
   xmlns:sodipodi="http://sodipodi.sourceforge.net/DTD/sodipodi-0.dtd"
   xmlns:inkscape="http://www.inkscape.org/namespaces/inkscape"
   height="48"
   id="Layer_1"
   version="1.1"
   viewBox="0 0 48 48"
   width="48"
   xml:space="preserve"
   inkscape:version="0.91 r13725"
   sodipodi:docname="settings.svg"><metadata
     id="metadata9"><rdf:RDF><cc:Work
         rdf:about=""><dc:format>image/svg+xml</dc:format><dc:type
           rdf:resource="http://purl.org/dc/dcmitype/StillImage" /><dc:title /><cc:license
           rdf:resource="http://creativecommons.org/publicdomain/zero/1.0/" /></cc:Work><cc:License
         rdf:about="http://creativecommons.org/publicdomain/zero/1.0/"><cc:permits
           rdf:resource="http://creativecommons.org/ns#Reproduction" /><cc:permits
           rdf:resource="http://creativecommons.org/ns#Distribution" /><cc:permits
           rdf:resource="http://creativecommons.org/ns#DerivativeWorks" /></cc:License></rdf:RDF></metadata><defs
     id="defs7" /><sodipodi:namedview
     pagecolor="#ffffff"
     bordercolor="#666666"
     borderopacity="1"
     objecttolerance="10"
     gridtolerance="10"
     guidetolerance="10"
     inkscape:pageopacity="0"
     inkscape:pageshadow="2"
     inkscape:window-width="1276"
     inkscape:window-height="755"
     id="namedview5"
     showgrid="false"
     inkscape:zoom="7.375"
     inkscape:cx="8.2859492"
     inkscape:cy="26.82436"
     inkscape:window-x="4"
     inkscape:window-y="1"
     inkscape:window-maximized="1"
     inkscape:current-layer="Layer_1" /><path
     d="m 36.313666,21.116895 -1.109465,0 c -0.90511,0 -1.664237,-0.780003 -1.664237,-1.705802 0,-0.466549 0.197064,-0.889357 0.547436,-1.202817 l 0.715329,-0.699818 c 0.708009,-0.699818 0.708009,-1.844311 0,-2.544129 l -1.627731,-1.611036 c -0.321156,-0.320748 -0.795613,-0.510287 -1.277362,-0.510287 -0.481748,0 -0.948893,0.189539 -1.277353,0.510287 l -0.686121,0.685236 c -0.328464,0.364491 -0.766429,0.561317 -1.240876,0.561317 -0.934284,0 -1.715317,-0.758142 -1.715317,-1.654779 l 0,-1.115339 c 0,-0.984116 -0.79561,-1.82973 -1.788309,-1.82973 l -2.218958,0 c -0.992693,0 -1.781007,0.838321 -1.781007,1.82973 l 0,1.108044 c 0,0.896645 -0.781012,1.65478 -1.715316,1.65478 -0.467151,0 -0.897805,-0.196826 -1.211677,-0.539441 l -0.708016,-0.699818 c -0.32116,-0.328042 -0.795615,-0.510287 -1.277364,-0.510287 -0.481752,0 -0.94889,0.189539 -1.27736,0.510287 l -1.642322,1.603749 c -0.70073,0.699818 -0.70073,1.844311 0,2.536842 l 0.686128,0.685237 c 0.364949,0.328041 0.56933,0.765423 0.56933,1.231972 0,0.933086 -0.759114,1.705802 -1.664218,1.705802 l -1.109479,0 C 10.839409,21.116895 10,21.896898 10,22.888308 l 0,1.108044 0,1.108044 c 0,0.984124 0.839409,1.77142 1.839401,1.77142 l 1.109479,0 c 0.905104,0 1.664218,0.780004 1.664218,1.705802 0,0.466544 -0.204381,0.903931 -0.56933,1.231972 l -0.686128,0.67795 c -0.70073,0.69982 -0.70073,1.844311 0,2.536836 l 1.627738,1.61833 c 0.321151,0.32804 0.795597,0.510286 1.277345,0.510286 0.481752,0 0.948895,-0.18954 1.277361,-0.510286 l 0.708018,-0.699818 c 0.306584,-0.342616 0.744526,-0.539442 1.211698,-0.539442 0.934277,0 1.715297,0.758136 1.715297,1.65478 l 0,1.108044 c 0,0.984116 0.788312,1.82973 1.788301,1.82973 l 2.218968,0 c 0.992693,0 1.781008,-0.83832 1.781008,-1.82973 l 0,-1.108044 c 0,-0.896644 0.781014,-1.65478 1.715311,-1.65478 0.467149,0 0.905111,0.204114 1.240866,0.561309 l 0.686127,0.685237 c 0.328477,0.320754 0.795617,0.510286 1.277369,0.510286 0.481745,0 0.948895,-0.189532 1.277354,-0.510286 l 1.627724,-1.618322 c 0.700738,-0.699819 0.700738,-1.84431 0,-2.54413 l -0.715313,-0.699818 c -0.350371,-0.31346 -0.54745,-0.74356 -0.54745,-1.202816 0,-0.933086 0.759133,-1.705803 1.664227,-1.705803 l 1.109468,0 c 0.992698,0 1.70072,-0.780003 1.70072,-1.771413 l 0,-1.115338 0,-1.108044 c 0.01464,-0.99141 -0.69342,-1.771413 -1.686111,-1.771413 z m -6.401423,2.879457 0,0 c 0,3.214792 -2.605807,5.83182 -5.839346,5.83182 -3.233565,0 -5.839391,-2.617028 -5.839391,-5.83182 l 0,0 0,0 c 0,-3.214784 2.605826,-5.831812 5.839391,-5.831812 3.233539,0 5.839346,2.617028 5.839346,5.831812 l 0,0 z"
     id="path3"
     style="fill:#000000;fill-opacity:1;stroke:none;stroke-opacity:1"
     inkscape:connector-curvature="0" /></svg>
