<?xml version="1.0" encoding="UTF-8" standalone="no"?>
<svg xmlns:rdf="http://www.w3.org/1999/02/22-rdf-syntax-ns#" xmlns="http://www.w3.org/2000/svg" xml:space="preserve" height="48" width="48" version="1.1" xmlns:cc="http://creativecommons.org/ns#" xmlns:dc="http://purl.org/dc/elements/1.1/" viewBox="0 0 48 48"><path fill="#000000" d="m40.672 20.088c-1.467 0.185-3.467-0.122-3.736-1.894-0.368-1.828 1.788-2.488 2.269-3.964 0.701-1.914-1.297-3.021-2.347-4.2481-1.074-1.3781-3.171-1.4513-4.266-0.0556-1.04 2.0047-4.381 1.5917-4.573-0.7587 0.146-1.474 0.049-3.6145-1.748-3.9957-1.627-0.1504-3.479-0.43-4.99 0.2703-1.666 1.0339-0.698 3.0682-1.35 4.5423-0.671 1.5645-2.923 1.6495-3.911 0.3415-0.953-1.4743-3.084-1.9777-4.378-0.6282-1.088 1.3282-3.3217 2.4852-2.644 4.5322 0.73531 1.5383 3.2557 2.7652 1.9599 4.763-0.98891 1.712-3.0771 0.6889-4.5347 1.374-1.8306 0.75764-1.2991 2.9466-1.3923 4.5057-0.26873 1.7796 1.2545 3.2423 3.0135 3.0327 2.1469-0.73715 4.3435 2.0611 2.6491 3.7839-1.2237 0.94661-2.5848 2.7271-1.3239 4.2035 1.1834 1.1628 2.2152 2.9149 3.9552 3.1946 1.9724 0.2739 2.5512-2.1944 4.3569-2.3378 2.4042-0.25072 2.6828 2.5317 2.5691 4.2895 0.42612 2.1684 2.959 1.9962 4.6455 1.8917 1.9113 0.46547 3.5922-1.5237 3.0902-3.3525-0.19487-1.5054 1.0372-3.1364 2.6482-2.8306 1.7088 0.28125 2.3224 2.6495 4.2315 2.3331 1.8772-0.35424 3.0564-2.2009 4.2137-3.5727 1.1403-2.1339-1.6036-3.1913-2.1583-4.897-0.38803-1.8012 1.6007-3.1337 3.2265-2.6915 1.6925 0.23041 3.1473-1.3101 2.8004-2.9894 0.01443-1.7334 0.41361-4.4212-1.9013-4.8199l-0.37777-0.02166zm-8.6675 3.8989c0.17954 4.8135-4.8425 8.882-9.5215 7.752-4.4179-0.83557-7.4363-5.8627-5.9441-10.143 1.2748-4.2114 6.3839-6.7255 10.466-4.9662 2.9329 1.1574 5.0676 4.1794 5.0001 7.3577z"/></svg>
