<?xml version="1.0" encoding="UTF-8" standalone="no"?>
<svg xmlns:rdf="http://www.w3.org/1999/02/22-rdf-syntax-ns#" xmlns="http://www.w3.org/2000/svg" xml:space="preserve" height="48" width="48" version="1.1" xmlns:cc="http://creativecommons.org/ns#" xmlns:dc="http://purl.org/dc/elements/1.1/" viewBox="0 0 48 48">
<path fill="#000" d="m36.314 21.117c-1.0838 0.13672-2.5607-0.08985-2.7589-1.3988-0.27243-1.3499 1.3201-1.8374 1.6753-2.9276 0.51753-1.4138-0.9578-2.231-1.7334-3.1373-0.79276-1.0178-2.3414-1.0719-3.1506-0.0411-0.76797 1.4804-3.2353 1.1758-3.3769-0.5603 0.10745-1.0886 0.03607-2.6695-1.2913-2.951-1.2017-0.11112-2.5695-0.31758-3.6853 0.19958-1.2307 0.7636-0.51547 2.266-0.99745 3.3547-0.49531 1.1555-2.1584 1.2181-2.888 0.25252-0.70402-1.0891-2.2778-1.4609-3.2332-0.46422-0.80412 0.98122-2.4535 1.8356-1.953 3.3476 0.54306 1.1361 2.4045 2.0422 1.4475 3.5177-0.73036 1.2644-2.2726 0.50879-3.3491 1.0148-1.352 0.55955-0.95947 2.1762-1.0283 3.3277-0.19847 1.3143 0.9265 2.3946 2.2256 2.2398 1.5856-0.54442 3.2079 1.5222 1.9565 2.7946-0.90376 0.69912-1.909 2.0141-0.97779 3.1045 0.87403 0.85881 1.636 2.1528 2.9211 2.3594 1.4567 0.20229 1.8842-1.6207 3.2178-1.7266 1.7756-0.18517 1.9814 1.8698 1.8974 3.168 0.31471 1.6015 2.1854 1.4743 3.4309 1.3971 1.4116 0.34377 2.653-1.1253 2.2823-2.476-0.14392-1.1118 0.76601-2.3164 1.9558-2.0905 1.262 0.20772 1.7152 1.9568 3.1252 1.7231 1.3864-0.26162 2.2573-1.6255 3.112-2.6386 0.84218-1.576-1.1843-2.3569-1.594-3.6167-0.28658-1.3303 1.1822-2.3144 2.3829-1.9878 1.25 0.17017 2.3244-0.9676 2.0682-2.2078 0.01066-1.2802 0.30547-3.2653-1.4042-3.5597l-0.279-0.016zm-6.4014 2.8795c0.1326 3.555-3.5764 6.5598-7.0321 5.7252-3.2628-0.61711-5.4921-4.3299-4.39-7.4913 0.94152-3.1103 4.7148-4.9671 7.7293-3.6678 2.1661 0.85476 3.7427 3.0867 3.6928 5.434z"/>
</svg>
