<?xml version="1.0" encoding="UTF-8" standalone="no"?>
<svg xmlns:rdf="http://www.w3.org/1999/02/22-rdf-syntax-ns#" xmlns="http://www.w3.org/2000/svg" xml:space="preserve" height="48" width="48" version="1.1" enable-background="new 0 0 128 128" xmlns:cc="http://creativecommons.org/ns#" xmlns:dc="http://purl.org/dc/elements/1.1/" viewBox="0 0 48 48"><g fill="#000000" transform="translate(0,-80)"><path stroke-linejoin="round" d="m32.607 120.84c-2.9851-1.7267-5.9701-3.4535-8.9552-5.1802-3.1172 1.5899-6.1623 3.3206-9.3229 4.8252-2.668-0.067-1.6015-3.4342-1.1865-5.0627 0.43992-2.3521 0.88002-4.7041 1.3202-7.0561-2.4195-2.6062-4.9243-5.1324-7.3161-7.7644-0.92989-2.3744 2.4284-2.7197 4.0402-2.6919 2.3649-0.30126 4.7297-0.6026 7.0946-0.90392 1.6694-3.2346 3.1876-6.5473 4.9546-9.7313 1.8953-1.0977 2.8933 1.356 3.3675 2.7777 1.0586 2.4152 2.1542 4.8164 3.2258 7.2269 3.4694 0.62183 6.9501 1.1809 10.411 1.8496 1.7619 1.3338-0.18261 3.2026-1.3531 4.1383-1.9382 1.8194-3.8221 3.6975-5.7384 5.5406 0.51957 3.7051 1.1029 7.4015 1.5612 11.115 0.02455 1.0324-1.3582 1.4322-2.1029 0.9172z" stroke="#000" stroke-linecap="round" stroke-miterlimit="10" stroke-width="2" fill="#000000"/></g></svg>
