<?xml version="1.0" encoding="UTF-8" standalone="no"?>
<svg xmlns:rdf="http://www.w3.org/1999/02/22-rdf-syntax-ns#" xmlns="http://www.w3.org/2000/svg" xml:space="preserve" height="48" width="48" version="1.1" enable-background="new 0 0 128 128" xmlns:cc="http://creativecommons.org/ns#" xmlns:dc="http://purl.org/dc/elements/1.1/" viewBox="0 0 48 48"><g transform="matrix(.75443 0 0 .75425 5.9067 -54.453)"><path stroke-linejoin="round" d="m32.607 120.84-8.9552-5.1802c-3.1156 1.5891-6.1706 3.3249-9.3229 4.8252-2.4087 0.15997-1.7886-2.6358-1.3683-4.0905 0.50047-2.6761 1.0012-5.3522 1.502-8.0283-2.4187-2.6054-4.9289-5.1373-7.3161-7.7644-0.96404-1.8077 1.3488-2.6659 2.7844-2.5319 2.7835-0.35456 5.5669-0.70923 8.3504-1.0639 1.6685-3.233 3.1925-6.5569 4.9546-9.7313 2.3106-1.397 2.85 1.9432 3.6317 3.3872 0.98723 2.2058 1.9744 4.4116 2.9616 6.6174 3.4691 0.62177 6.9518 1.1812 10.411 1.8496 2.2077 1.5162-0.74037 3.4337-1.8425 4.5857-1.7496 1.6977-3.4993 3.3955-5.249 5.0932 0.51952 3.7047 1.1031 7.4028 1.5612 11.115 0.0043 1.0508-1.3327 1.4208-2.1031 0.91764z" stroke="#000000" stroke-linecap="round" stroke-miterlimit="10" stroke-width="3" fill="none"/></g></svg>
