<?xml version="1.0" encoding="UTF-8" standalone="no"?>
<svg xmlns:rdf="http://www.w3.org/1999/02/22-rdf-syntax-ns#" xmlns="http://www.w3.org/2000/svg" height="48" width="48" version="1.1" xmlns:cc="http://creativecommons.org/ns#" xmlns:dc="http://purl.org/dc/elements/1.1/" viewBox="0 0 24 24">
 <path style="color-rendering:auto;text-decoration-color:#000000;color:#000000;isolation:auto;mix-blend-mode:normal;shape-rendering:auto;solid-color:#000000;block-progression:tb;text-decoration-line:none;text-decoration-style:solid;image-rendering:auto;white-space:normal;text-indent:0;text-transform:none" d="m12.01 3.25c-0.711 0.055-0.885 0.8578-1.264 1.339-3.1275 5.0042-6.2551 10.008-9.3827 15.013-0.47732 0.86 0.5489 1.288 1.2467 1.148h19.39c0.98282-0.05114 0.80174-1.148 0.31344-1.6657-3.225-5.161-6.451-10.322-9.676-15.482-0.132-0.2141-0.376-0.3511-0.627-0.352zm-0.0166 4.9209c1.339-0.11028 1.1929 1.524 1.3353 2.4171 0.06898 1.3876 0.14966 2.8613-0.38854 4.1701-0.66098 0.69178-2.1318 0.3573-2.1462-0.71451-0.359-1.778-0.212-3.64 0.206-5.3946 0.137-0.3917 0.634-0.4707 0.993-0.4785zm0.007 7.5751c0.95807-0.10409 1.5811 0.9212 1.3038 1.7757-0.24282 1.3135-2.5438 1.2207-2.6353-0.13787-0.179-0.859 0.406-1.71 1.332-1.638z" fill-rule="evenodd" fill="#000000"/>
 <path d="m0 0h24v24h-24z" fill="none"/>
</svg>
