<?xml version="1.0" encoding="UTF-8" standalone="no"?>
<svg xmlns:rdf="http://www.w3.org/1999/02/22-rdf-syntax-ns#" xmlns="http://www.w3.org/2000/svg" height="48" width="48" version="1.1" xmlns:cc="http://creativecommons.org/ns#" xmlns:dc="http://purl.org/dc/elements/1.1/" viewBox="0 0 24 24">
<path d="m0 0h24v24h-24z" fill="none"/>
<path style="color-rendering:auto;text-decoration-color:#000000;color:#000000;isolation:auto;mix-blend-mode:normal;shape-rendering:auto;solid-color:#000000;block-progression:tb;text-decoration-line:none;image-rendering:auto;white-space:normal;text-indent:0;text-transform:none;text-decoration-style:solid" fill="#000000" d="m12.011 6.2504c-0.4454 0.00959-0.55414 0.52448-0.78465 0.81717-2.0566 3.3202-4.1187 6.637-6.1719 9.9591-0.20199 0.3781 0.19203 0.80148 0.58286 0.7109 4.3092-0.0017 8.6188 0.0031 12.928-0.0023 0.4249-0.02752 0.57246-0.5887 0.2893-0.87494-2.155-3.473-4.305-6.9492-6.463-10.42-0.09-0.117-0.234-0.1891-0.381-0.19zm-0.0065 1.4231 5.629 9.0796h-11.258c1.8763-3.0267 3.7526-6.0528 5.629-9.0796zm-0.65116 8.3247c0.46796 0.44034 1.4627 0.25396 1.5182-0.46978 0.14903-0.58864-0.3527-1.1846-0.96014-1.0715-0.78726-0.0065-1.0152 1.0253-0.55805 1.5413zm0-2.2646c0.33052 0.49367 1.3616 0.39773 1.3941-0.2896 0.24484-1.198 0.20577-2.4642-0.09181-3.649-0.29498-0.51975-1.3935-0.41433-1.3733 0.28961-0.20446 1.1663-0.33209 2.4115 0.03256 3.5583l0.03842 0.09058z"/>
</svg>
