<?xml version="1.0" encoding="UTF-8" standalone="no"?>
<svg xmlns:rdf="http://www.w3.org/1999/02/22-rdf-syntax-ns#" xmlns="http://www.w3.org/2000/svg" height="48" width="48" version="1.1" xmlns:cc="http://creativecommons.org/ns#" xmlns:dc="http://purl.org/dc/elements/1.1/" viewBox="0 0 24 24">
 <path d="m0 0h24v24h-24z" fill="none"/>
 <path style="color-rendering:auto;text-decoration-color:#000000;color:#000000;isolation:auto;mix-blend-mode:normal;shape-rendering:auto;solid-color:#000000;block-progression:tb;text-decoration-line:none;image-rendering:auto;white-space:normal;text-indent:0;text-transform:none;text-decoration-style:solid" fill="#000000" d="m12.01 3.25c-0.684 0.0146-0.851 0.799-1.205 1.2449-3.1584 5.058-6.3252 10.111-9.4783 15.172-0.3102 0.576 0.2949 1.221 0.8951 1.083 6.6177-0.0024 13.236 0.0048 19.853-0.0036 0.65252-0.04191 0.87913-0.89684 0.44428-1.3329-3.309-5.291-6.61-10.587-9.925-15.874-0.137-0.1788-0.359-0.2887-0.584-0.29zm-0.01 2.168l8.6445 13.832h-17.289c2.8815-4.611 5.763-9.221 8.6445-13.832zm-1 12.682c0.71866 0.67082 2.2463 0.38689 2.3315-0.71568 0.22887-0.89674-0.54165-1.8046-1.4745-1.6324-1.209-0.01-1.559 1.562-0.857 2.348zm0-3.45c0.50758 0.75207 2.091 0.60591 2.141-0.44118 0.376-1.825 0.316-3.754-0.141-5.559-0.453-0.7918-2.14-0.6312-2.109 0.4412-0.314 1.7768-0.51 3.6738 0.05 5.4208l0.059 0.138z"/>
</svg>
