<?xml version="1.0" encoding="UTF-8" standalone="no"?>
<svg xmlns:rdf="http://www.w3.org/1999/02/22-rdf-syntax-ns#" xmlns="http://www.w3.org/2000/svg" height="48" width="48" version="1.1" xmlns:cc="http://creativecommons.org/ns#" xmlns:dc="http://purl.org/dc/elements/1.1/">
<path style="color-rendering:auto;text-decoration-color:#000000;color:#000000;shape-rendering:auto;solid-color:#000000;text-decoration-line:none;fill:#000000;mix-blend-mode:normal;block-progression:tb;text-indent:0;image-rendering:auto;white-space:normal;text-decoration-style:solid;isolation:auto;text-transform:none" d="m20.902 10.006c-3.6538 0.08877-7.2343 2.0427-9.1223 5.2017-3.0674 4.4067-2.0455 10.867 1.8426 14.442 2.2609 2.1017 5.4462 3.166 8.5147 2.9674 2.1395-0.16758 4.21-0.98886 5.9251-2.2711 2.4769 2.4511 4.905 4.957 7.4129 7.3734 1.1257 0.8622 2.8811-0.34202 2.4819-1.7026-0.32906-0.95205-1.2674-1.5005-1.9021-2.2446l-5.7289-5.7289c2.5462-3.2497 2.9531-7.8638 1.1976-11.555-1.498-3.263-4.599-5.76-8.172-6.314-0.808-0.141-1.63-0.1962-2.45-0.167zm0.11719 3.3105c2.8573-0.15936 5.7765 1.2679 7.1858 3.7996 1.7568 2.8566 1.5829 6.8663-0.77492 9.3464-2.1147 2.4295-5.7201 3.679-8.8009 2.468-4.9041-1.5381-7.0622-8.4077-3.8255-12.437 1.3707-2.0237 3.8203-3.0998 6.2155-3.1766zm-3.668 6.293c-1.4136-0.11138-2.2318 1.8538-1.1569 2.7785 1.0908 0.8689 2.6224 0.27841 3.9004 0.45738 1.9097-0.03772 3.8347 0.09518 5.7352-0.04695 1.3832-0.31209 1.583-2.4314 0.28249-2.9965-1.365-0.39037-2.8474-0.07018-4.2568-0.18042-1.5014-0.004-3.0031-0.008-4.5043-0.01208z"/>
</svg>
