<?xml version="1.0" encoding="UTF-8" standalone="no"?>
<svg xmlns:rdf="http://www.w3.org/1999/02/22-rdf-syntax-ns#" xmlns="http://www.w3.org/2000/svg" height="48" width="48" version="1.1" xmlns:cc="http://creativecommons.org/ns#" xmlns:dc="http://purl.org/dc/elements/1.1/">
<path style="color-rendering:auto;text-decoration-color:#000000;color:#000000;shape-rendering:auto;solid-color:#000000;text-decoration-line:none;fill:#000000;mix-blend-mode:normal;block-progression:tb;text-indent:0;image-rendering:auto;white-space:normal;text-decoration-style:solid;isolation:auto;text-transform:none" d="m20.902 10.008c-3.6534 0.08858-7.2345 2.0408-9.1223 5.1997-3.0678 4.4075-2.0456 10.869 1.8435 14.444 2.2611 2.1015 5.4466 3.1652 8.515 2.9657 2.1391-0.16818 4.2091-0.98975 5.9239-2.2718 2.4769 2.4505 4.9051 4.9556 7.4129 7.3714 1.1257 0.86218 2.8811-0.34206 2.4818-1.7027-0.329-0.95203-1.2674-1.5003-1.9022-2.2442l-5.7288-5.7273c2.0124-2.5503 2.6838-6.0065 2.0187-9.1207-0.8866-4.2426-4.3569-7.9047-8.6706-8.6868-0.91061-0.18508-1.8437-0.26072-2.7719-0.22772zm0.11719 3.3105c2.857-0.15946 5.775 1.2678 7.1859 3.7978 1.757 2.8568 1.5824 6.8664-0.77504 9.3469-2.1142 2.4289-5.721 3.6829-8.8009 2.4674-4.9029-1.5375-7.0632-8.4071-3.8255-12.435 1.3707-2.0237 3.8203-3.0998 6.2155-3.1766zm0.28906 2.1367c-1.0991-0.02458-1.7638 1.1079-1.5999 2.1062-0.0032 0.68465-0.0063 1.3693-0.0095 2.054-1.253 0.15222-3.0323-0.51615-3.8071 0.84193-0.68206 1.1444 0.46278 2.6347 1.7424 2.3815 0.93081 0.07105 2.4447-0.43647 2.0444 0.95582 0.08809 1.0326-0.32824 2.2986 0.56996 3.0752 1.0025 0.93039 2.8021 0.01275 2.65-1.3434 0.0044-0.89091 0.0089-1.7818 0.01328-2.6727 1.279-0.16503 3.1008 0.53849 3.8985-0.84271 0.68418-1.1503-0.47248-2.6401-1.7552-2.3807-0.93651-0.09134-2.5308 0.47026-2.1232-0.95579-0.05915-1.0049 0.29948-2.29-0.70789-2.9458-0.26844-0.1807-0.59221-0.27732-0.91562-0.27342z"/>
</svg>
